<svg
    width="30"
    height="28"
    fill="none"
    viewBox="0 0 30 28"
    xmlns="http://www.w3.org/2000/svg"
>
    <path
        d="M28.3334 10H1.66675M17.6667 21.3333L21.0001 18L17.6667 14.6667M12.3334 14.6667L9.00008 18L12.3334 21.3333M1.66675 8.4L1.66675 19.6C1.66675 21.8402 1.66675 22.9603 2.10272 23.816C2.48622 24.5686 3.09814 25.1805 3.85079 25.564C4.70643 26 5.82654 26 8.06675 26H21.9334C24.1736 26 25.2937 26 26.1494 25.564C26.902 25.1805 27.514 24.5686 27.8974 23.816C28.3334 22.9603 28.3334 21.8402 28.3334 19.6V8.4C28.3334 6.15979 28.3334 5.03969 27.8974 4.18404C27.514 3.43139 26.902 2.81947 26.1494 2.43598C25.2937 2 24.1736 2 21.9334 2L8.06675 2C5.82654 2 4.70643 2 3.85079 2.43597C3.09814 2.81947 2.48622 3.43139 2.10272 4.18404C1.66675 5.03968 1.66675 6.15979 1.66675 8.4Z"
        stroke="currentColor"
        strokeLinecap="round"
        strokeLinejoin="round"
    />
</svg>
