<svg
    width="30"
    height="22"
    fill="none"
    viewBox="0 0 30 22"
    xmlns="http://www.w3.org/2000/svg"
>
    <path
        d="M2.22683 11.9509C2.04525 11.6633 1.95446 11.5196 1.90363 11.2978C1.86546 11.1313 1.86546 10.8686 1.90363 10.7021C1.95446 10.4803 2.04525 10.3366 2.22683 10.0491C3.72737 7.67308 8.19387 1.66663 15.0005 1.66663C21.8072 1.66663 26.2737 7.67308 27.7742 10.0491C27.9558 10.3366 28.0466 10.4803 28.0974 10.7021C28.1356 10.8686 28.1356 11.1313 28.0974 11.2978C28.0466 11.5196 27.9558 11.6633 27.7742 11.9509C26.2737 14.3268 21.8072 20.3333 15.0005 20.3333C8.19387 20.3333 3.72737 14.3268 2.22683 11.9509Z"
        stroke="currentColor"
        strokeLinecap="round"
        strokeLinejoin="round"
    />

    <path
        d="M15.0005 15C17.2097 15 19.0005 13.2091 19.0005 11C19.0005 8.79082 17.2097 6.99996 15.0005 6.99996C12.7914 6.99996 11.0005 8.79082 11.0005 11C11.0005 13.2091 12.7914 15 15.0005 15Z"
        stroke="currentColor"
        strokeLinecap="round"
        strokeLinejoin="round"
    />
</svg>
