<svg
    width="29"
    height="30"
    fill="none"
    viewBox="0 0 29 30"
    xmlns="http://www.w3.org/2000/svg"
>
    <path
        d="M25.3333 8.70357L14 14.9999M14 14.9999L2.66662 8.70357M14 14.9999L14 27.6666M16.6667 26.8518L15.036 27.7577C14.6579 27.9677 14.4688 28.0728 14.2686 28.114C14.0914 28.1504 13.9086 28.1504 13.7314 28.114C13.5312 28.0728 13.3421 27.9677 12.964 27.7577L3.0973 22.2762C2.69794 22.0543 2.49824 21.9434 2.35284 21.7856C2.22421 21.646 2.12686 21.4806 2.06731 21.3003C2 21.0966 2 20.8682 2 20.4113V9.58851C2 9.13165 2 8.90322 2.06731 8.69949C2.12686 8.51925 2.22421 8.35381 2.35284 8.21422C2.49825 8.05644 2.69793 7.94551 3.09729 7.72364L12.964 2.24215C13.3421 2.03208 13.5312 1.92704 13.7314 1.88586C13.9086 1.84941 14.0914 1.84941 14.2686 1.88586C14.4688 1.92704 14.6579 2.03207 15.036 2.24215L24.9027 7.72363C25.3021 7.9455 25.5018 8.05644 25.6472 8.21422C25.7758 8.35381 25.8731 8.51925 25.9327 8.69949C26 8.90322 26 9.13165 26 9.5885L26 15.6666M8 4.99991L20 11.6666M19.3333 22.9999L22 25.6666L27.3333 20.3332"
        stroke="currentColor"
        strokeLinecap="round"
        strokeLinejoin="round"
    />
</svg>
