<svg
    width="28"
    height="26"
    fill="none"
    viewBox="0 0 28 26"
    xmlns="http://www.w3.org/2000/svg"
>
    <path
        d="M26 22L24.6665 23.4588C23.9593 24.2322 23.0002 24.6667 22.0002 24.6667C21.0001 24.6667 20.0411 24.2322 19.3338 23.4588C18.6256 22.6869 17.6666 22.2534 16.6669 22.2534C15.6672 22.2534 14.7082 22.6869 14 23.4588M2 24.6667H4.23272C4.88497 24.6667 5.21109 24.6667 5.51799 24.593C5.79008 24.5277 6.0502 24.4199 6.2888 24.2737C6.55791 24.1088 6.78851 23.8782 7.24971 23.417L24 6.66668C25.1046 5.56211 25.1046 3.77125 24 2.66668C22.8955 1.56211 21.1046 1.56212 20 2.66668L3.24968 19.417C2.78847 19.8782 2.55787 20.1088 2.39296 20.3779C2.24675 20.6165 2.13901 20.8766 2.07368 21.1487C2 21.4556 2 21.7818 2 22.434V24.6667Z"
        stroke="currentColor"
        strokeLinecap="round"
        strokeLinejoin="round"
    />
</svg>
