<svg width="39" height="25" viewBox="0 0 39 25" fill="none" xmlns="http://www.w3.org/2000/svg">
<g filter="url(#filter0_d_475_4845)">
<path fill-rule="evenodd" clip-rule="evenodd" d="M16.4119 17.906C16.0461 17.6146 15.521 16.959 14.699 16.2126C14.2334 15.7905 13.1604 15.0485 12.7867 14.6257C12.4604 14.2509 12.4313 14.0515 12.3857 13.6808C12.3042 13.0213 12.7802 12.3632 13.4474 12.256C13.9512 12.1742 14.4601 12.41 14.9222 12.6377C15.201 12.7745 15.5816 13.0837 15.807 13.2555C16.0142 13.4126 16.074 13.4845 16.3013 13.6752C16.602 13.9278 16.7113 14.0634 16.5364 13.7435C16.3348 13.2594 15.9954 12.4315 15.6335 11.7159C15.3585 11.1733 15.305 11.0911 15.0715 10.6806C14.8237 10.2436 14.6732 9.93138 14.4254 9.46401C14.2516 9.13303 13.916 8.45158 13.7688 8.05707C13.5666 7.51781 13.2963 6.62251 13.5168 6.1186C13.6897 5.72404 14.2597 5.46606 14.683 5.56746C15.2371 5.69997 15.7139 6.37937 15.9202 6.64632C16.2909 7.12632 16.5981 7.71339 16.9397 8.50062C17.3744 9.5027 18.0479 10.8747 18.139 11.1769C18.0616 10.7973 17.7639 10.0341 17.7284 9.65953C17.6961 9.31992 17.8501 8.87399 18.1422 8.68616C18.3894 8.52769 18.6977 8.41147 18.993 8.39851C19.3062 8.38403 19.6788 8.5272 19.8523 8.70963C20.3637 9.24959 20.7161 10.5384 20.7118 10.4658C20.6911 10.0634 20.4456 9.20376 20.5506 8.79048C20.6195 8.51817 20.8997 8.21418 21.07 8.13165C21.3338 8.00456 21.6706 7.89695 21.9789 7.87943C22.2275 7.86597 22.6263 8.08025 22.7509 8.20094C23.0502 8.49394 23.4313 9.44743 23.5587 9.78323C23.6112 9.92215 23.5224 9.3677 23.636 8.96403C23.8464 8.2144 25.1709 7.72498 25.6032 9.13019C25.8042 9.78586 25.7913 9.75676 25.9107 10.2021C26.0509 10.7255 26.1239 11.0433 26.1989 11.429C26.2781 11.8417 26.442 12.7785 26.4426 13.2535C26.443 13.58 26.3572 14.3375 26.2018 14.8196C26.2018 14.8196 25.5258 16.3568 25.5679 16.9564C25.6088 17.5551 25.6467 17.5493 25.7332 17.959C25.8194 18.3677 26.0976 18.8616 26.0976 18.8616C26.0976 18.8616 25.3679 19.17 24.9409 19.2095C24.5542 19.2448 23.8858 18.5799 23.7031 18.3706C23.4516 18.0821 23.1218 18.2389 23.0523 18.52C22.9435 18.9647 22.6724 19.7827 22.3609 19.9128C21.7523 20.167 20.428 20.4643 19.3996 20.728C19.3996 20.728 19.3002 19.6578 18.8167 19.4108C18.4582 19.2259 17.8196 18.8275 17.448 18.6276L16.4119 17.906Z" fill="#004BFF"/>
<path fill-rule="evenodd" clip-rule="evenodd" d="M16.4119 17.906C16.0461 17.6146 15.521 16.959 14.699 16.2126C14.2334 15.7905 13.1604 15.0485 12.7867 14.6257C12.4604 14.2509 12.4313 14.0515 12.3857 13.6808C12.3042 13.0213 12.7802 12.3632 13.4474 12.256C13.9512 12.1742 14.4601 12.41 14.9222 12.6377C15.201 12.7745 15.5816 13.0837 15.807 13.2555C16.0142 13.4126 16.074 13.4845 16.3013 13.6752C16.602 13.9278 16.7113 14.0634 16.5364 13.7435C16.3348 13.2594 15.9954 12.4315 15.6335 11.7159C15.3585 11.1733 15.305 11.0911 15.0715 10.6806C14.8237 10.2436 14.6732 9.93138 14.4254 9.46401C14.2516 9.13303 13.916 8.45158 13.7688 8.05707C13.5666 7.51781 13.2963 6.62251 13.5168 6.1186C13.6897 5.72404 14.2597 5.46606 14.683 5.56746C15.2371 5.69997 15.7139 6.37937 15.9202 6.64632C16.2909 7.12632 16.5981 7.71339 16.9397 8.50062C17.3744 9.5027 18.0479 10.8747 18.139 11.1769C18.0616 10.7973 17.7639 10.0341 17.7284 9.65953C17.6961 9.31992 17.8501 8.87399 18.1422 8.68616C18.3894 8.52769 18.6977 8.41147 18.993 8.39851C19.3062 8.38403 19.6788 8.5272 19.8523 8.70963C20.3637 9.24959 20.7161 10.5384 20.7118 10.4658C20.6911 10.0634 20.4456 9.20376 20.5506 8.79048C20.6195 8.51817 20.8997 8.21418 21.07 8.13165C21.3338 8.00456 21.6706 7.89695 21.9789 7.87943C22.2275 7.86597 22.6263 8.08025 22.7509 8.20094C23.0502 8.49394 23.4313 9.44743 23.5587 9.78323C23.6112 9.92215 23.5224 9.3677 23.636 8.96403C23.8464 8.2144 25.1709 7.72498 25.6032 9.13019C25.8042 9.78586 25.7913 9.75676 25.9107 10.2021C26.0509 10.7255 26.1239 11.0433 26.1989 11.429C26.2781 11.8417 26.442 12.7785 26.4426 13.2535C26.443 13.58 26.3572 14.3375 26.2018 14.8196C26.2018 14.8196 25.5258 16.3568 25.5679 16.9564C25.6088 17.5551 25.6467 17.5493 25.7332 17.959C25.8194 18.3677 26.0976 18.8616 26.0976 18.8616C26.0976 18.8616 25.3679 19.17 24.9409 19.2095C24.5542 19.2448 23.8858 18.5799 23.7031 18.3706C23.4516 18.0821 23.1218 18.2389 23.0523 18.52C22.9435 18.9647 22.6724 19.7827 22.3609 19.9128C21.7523 20.167 20.428 20.4643 19.3996 20.728C19.3996 20.728 19.3002 19.6578 18.8167 19.4108C18.4582 19.2259 17.8196 18.8275 17.448 18.6276L16.4119 17.906Z" stroke="white" stroke-width="0.75" stroke-linecap="round" stroke-linejoin="round"/>
</g>
<path fill-rule="evenodd" clip-rule="evenodd" d="M19.6697 13.9552C19.5983 13.6884 19.3241 13.5301 19.0574 13.6016C18.7906 13.6731 18.6323 13.9472 18.7038 14.214L19.4803 17.1118C19.5517 17.3785 19.8259 17.5368 20.0926 17.4653C20.3594 17.3938 20.5177 17.1197 20.4462 16.8529L19.6697 13.9552ZM20.9892 13.084C21.2559 13.0125 21.5301 13.1708 21.6016 13.4375L22.378 16.3353C22.4495 16.602 22.2912 16.8762 22.0245 16.9477C21.7578 17.0191 21.4836 16.8609 21.4121 16.5941L20.6357 13.6963C20.5642 13.4296 20.7225 13.1554 20.9892 13.084ZM22.9211 12.5663C23.1878 12.4949 23.462 12.6532 23.5334 12.9199L24.3099 15.8177C24.3814 16.0844 24.2231 16.3586 23.9563 16.43C23.6896 16.5015 23.4154 16.3432 23.344 16.0765L22.5675 13.1787C22.496 12.912 22.6543 12.6378 22.9211 12.5663Z" fill="white"/>
<path d="M9.5 11.9999H2.5M2.5 11.9999L6 8.49994M2.5 11.9999L6 15.4999" stroke="white" stroke-linecap="round" stroke-linejoin="round"/>
<path d="M29.5 11.9999H36.5M36.5 11.9999L33 8.49994M36.5 11.9999L33 15.4999" stroke="white" stroke-linecap="round" stroke-linejoin="round"/>
<defs>
<filter id="filter0_d_475_4845" x="10.0016" y="4.17029" width="18.816" height="19.9327" filterUnits="userSpaceOnUse" color-interpolation-filters="sRGB">
<feFlood flood-opacity="0" result="BackgroundImageFix"/>
<feColorMatrix in="SourceAlpha" type="matrix" values="0 0 0 0 0 0 0 0 0 0 0 0 0 0 0 0 0 0 127 0" result="hardAlpha"/>
<feOffset dy="1"/>
<feGaussianBlur stdDeviation="1"/>
<feColorMatrix type="matrix" values="0 0 0 0 0 0 0 0 0 0 0 0 0 0 0 0 0 0 0.24 0"/>
<feBlend mode="normal" in2="BackgroundImageFix" result="effect1_dropShadow_475_4845"/>
<feBlend mode="normal" in="SourceGraphic" in2="effect1_dropShadow_475_4845" result="shape"/>
</filter>
</defs>
</svg>
